<svg xmlns="http://www.w3.org/2000/svg" viewBox="0 0 512 512">
  <defs>
    <linearGradient id="bg" x1="0%" y1="0%" x2="100%" y2="100%">
      <stop offset="0%" style="stop-color:#1d4ed8"/>
      <stop offset="100%" style="stop-color:#7c3aed"/>
    </linearGradient>
    <linearGradient id="balloon" x1="0%" y1="0%" x2="0%" y2="100%">
      <stop offset="0%" style="stop-color:#ff2d78"/>
      <stop offset="100%" style="stop-color:#be123c"/>
    </linearGradient>
  </defs>
  <rect width="512" height="512" rx="80" fill="url(#bg)"/>
  <ellipse cx="256" cy="200" rx="120" ry="140" fill="url(#balloon)"/>
  <ellipse cx="210" cy="150" rx="35" ry="50" fill="rgba(255,255,255,0.3)"/>
  <ellipse cx="220" cy="190" rx="25" ry="30" fill="#fff"/>
  <ellipse cx="292" cy="190" rx="25" ry="30" fill="#fff"/>
  <circle cx="225" cy="195" r="12" fill="#1e293b"/>
  <circle cx="297" cy="195" r="12" fill="#1e293b"/>
  <circle cx="228" cy="190" r="4" fill="#fff"/>
  <circle cx="300" cy="190" r="4" fill="#fff"/>
  <path d="M195 165 L235 175" stroke="#fff" stroke-width="6" stroke-linecap="round"/>
  <path d="M317 165 L277 175" stroke="#fff" stroke-width="6" stroke-linecap="round"/>
  <polygon points="256,340 236,365 276,365" fill="#be123c"/>
  <path d="M256 365 Q256 400 230 420" stroke="#fff" stroke-width="4" fill="none"/>
  <path d="M256 365 Q256 400 282 420" stroke="#fff" stroke-width="4" fill="none"/>
  <circle cx="160" cy="280" r="35" fill="#ff2d78"/>
  <circle cx="352" cy="280" r="35" fill="#ff2d78"/>
  <circle cx="160" cy="280" r="20" fill="#be123c"/>
  <circle cx="352" cy="280" r="20" fill="#be123c"/>
  <polygon points="256,50 280,100 250,100 270,150 230,90 260,90" fill="#ffd600"/>
</svg>